<svg width="127" height="148" viewBox="0 0 127 148" fill="none" xmlns="http://www.w3.org/2000/svg">
<path fill-rule="evenodd" clip-rule="evenodd" d="M61.752 0.155865C60.9441 0.258188 59.8864 0.441292 59.4017 0.563003C58.917 0.684715 57.6375 0.83874 56.5582 0.905519C47.5096 1.46022 39.9615 13.6261 38.5968 25.5V25.5C37.7558 32.8241 41.6404 39.7467 48.1142 43.2736C49.4014 43.9748 50.6174 44.686 51.5968 45.5C53.4882 47.0719 50.1353 49.9229 49.5968 51C46.8104 55.918 37.2514 64.9203 32.2472 68.2496C30.7877 69.2211 21.626 73.9453 7.70782 80.9054C1.43699 84.0408 -0.733352 88.2049 0.643171 94.4563C2.3956 102.411 8.29806 105.38 21.2522 104.823C28.1952 104.525 32.2138 102.862 39.607 97.2266C40.8445 96.2831 40.8273 96.1118 39.985 101.133C39.2634 105.428 38.8207 109.581 38.5029 115.03C38.378 117.176 38.1389 119.448 37.9709 120.078C37.5745 121.569 37.5626 125.226 37.9709 127.5C38.1507 128.504 38.3952 130.863 38.5029 131.5C38.6117 132.137 39.1481 136.575 39.607 137.5C45.3446 149.097 61.6863 143.342 60.0835 130.5C59.9101 129.115 59.9877 122.387 60.0835 120.33L60.1242 119.457C60.1824 118.204 61.2071 117.215 62.4607 117.2V117.2C63.9137 117.183 65.2547 117.03 66.2973 116.762V116.762C67.1409 116.546 67.9787 117.132 68.0635 117.999L68.151 118.892C69.3508 131.143 72.0123 140.24 75.2705 143.227C78.3704 146.068 80.6689 147.066 84.1533 147.08C88.0308 147.095 88.6405 146.759 90.6019 143.522V143.522C91.6032 141.871 92.1343 139.978 92.1378 138.047L92.1399 136.857C92.1443 134.359 92.0559 132.481 91.9181 132.123C91.2772 130.465 90.8841 127.342 90.8841 123.899C90.8841 121.567 90.7753 119.851 90.562 118.804C90.0536 116.317 88.5701 108.372 88.9999 106.5C89.1834 105.703 88.8738 99.8867 88.9941 99.0355C88.9977 99.0094 88.9999 98.9867 88.9999 98.9603V98.9603C88.9999 98.5954 89.4352 98.4063 89.7019 98.6553L96.4999 105C100.405 107.972 105.301 108.815 110.597 109C116.65 109.212 120.019 108.491 125 103C130.598 96.8283 121.662 88.1758 114.105 84.2379C111.599 82.9325 109.731 81.3664 100.741 73.0308C94.1503 66.9197 91.2911 63.6415 85.8973 55.516C84.3601 53.2003 82.8049 50.885 81.3776 48.5V48.5C80.6409 47.2689 79.6564 44.2735 81.3776 43.4065C88.4304 39.8553 92.7916 34.4817 93.7707 28.1355C95.9862 13.7865 89.1284 3.49269 75.4159 0.579159C73.0453 0.0761574 64.4942 -0.188805 61.752 0.155865Z" fill="black"/>
<circle cx="83.5" cy="23.5" r="4.5" fill="white"/>
<circle cx="65.625" cy="24.625" r="5.625" fill="white"/>
</svg>
